<svg fill="#6b7280" viewBox="-9 0 32 32" version="1.1" xmlns="http://www.w3.org/2000/svg"><g id="SVGRepo_bgCarrier" stroke-width="0"></g><g id="SVGRepo_tracerCarrier" stroke-linecap="round" stroke-linejoin="round"></g><g id="SVGRepo_iconCarrier"> <title>sort</title> <path d="M0.281 13.063l5.969-7.438c0.531-0.688 1.406-0.688 1.938 0l5.969 7.438c0.531 0.688 0.281 1.25-0.625 1.25h-12.625c-0.906 0-1.156-0.563-0.625-1.25zM14.156 18.938l-5.969 7.438c-0.531 0.688-1.406 0.688-1.938 0l-5.969-7.438c-0.531-0.688-0.281-1.25 0.625-1.25h12.625c0.906 0 1.156 0.563 0.625 1.25z"></path> </g></svg><svg width="16" height="16" viewBox="0 0 24 24" fill="none" xmlns="http://www.w3.org/2000/svg">
<path d="M5 7.99985L7.29289 5.70696C7.68342 5.31643 8.31658 5.31643 8.70711 5.70696L11 7.99985M8 5.99985L8 17.9998M14 16.9998L16.2929 19.2927C16.6834 19.6833 17.3166 19.6833 17.7071 19.2927L20 16.9998M17 18.9998V6.99985" stroke="#0F172A" stroke-width="1.5" stroke-linecap="round"/>
</svg>
